<?xml version="1.0" encoding="utf-8"?>
<!-- Generator: Adobe Illustrator 27.3.1, SVG Export Plug-In . SVG Version: 6.00 Build 0)  -->
<svg version="1.2" baseProfile="tiny" id="g-darien_route-Artboard_1-interactions-img" xmlns="http://www.w3.org/2000/svg" xmlns:xlink="http://www.w3.org/1999/xlink"
	 x="0px" y="0px" viewBox="0 0 396.799 453.416" overflow="visible" xml:space="preserve">
<g>
	<g id="arrow-1_00000062870265987189096520000010086743941523494567_">
		<path fill="#F38391" d="M261.573,377.067c-1.727,0.177-3.487,0.052-5.207-0.275c-1.719-0.331-3.418-0.862-5.007-1.644
			c-1.583-0.782-3.123-1.716-4.462-2.9c-0.713-0.546-1.307-1.216-1.947-1.845c-0.618-0.648-1.149-1.37-1.73-2.058
			c-0.304-0.36-0.258-0.898,0.102-1.201c0.36-0.304,0.898-0.258,1.201,0.102c0.014,0.016,0.027,0.033,0.039,0.05l0.063,0.087
			c0.487,0.676,0.928,1.398,1.454,2.049c0.548,0.631,1.053,1.313,1.679,1.875c1.166,1.218,2.545,2.216,3.997,3.09
			c1.458,0.874,3.054,1.522,4.706,1.983C258.116,376.834,259.838,377.102,261.573,377.067z"/>
		<g>
			<path fill="#F38391" d="M242.087,364.739c1.425,1.128,3.444,2.375,5.101,2.902l-2.975,0.599l-1.903,2.363
				C242.607,368.89,242.432,366.523,242.087,364.739z"/>
		</g>
	</g>
	<g id="arrow-2_00000021082758696769321880000004660571813291549590_">
		<path fill="#F38391" d="M278.101,332.037c-1.634-1.658-3.505-3.062-5.488-4.246c-1.984-1.186-4.115-2.107-6.311-2.746
			c-1.086-0.366-2.223-0.535-3.336-0.76c-1.135-0.11-2.258-0.292-3.396-0.249c-2.27-0.087-4.515,0.324-6.71,0.804l-0.064,0.014
			c-0.478,0.104-0.95-0.198-1.055-0.676c-0.104-0.478,0.198-0.95,0.676-1.055c0.017-0.004,0.036-0.007,0.053-0.01
			c2.372-0.369,4.77-0.643,7.158-0.403c1.196,0.034,2.367,0.296,3.539,0.488c1.149,0.306,2.312,0.559,3.411,1.007
			c2.224,0.804,4.339,1.885,6.273,3.214C274.783,328.745,276.574,330.278,278.101,332.037z"/>
		<g>
			<path fill="#F38391" d="M249.183,324.991c1.472-1.066,3.22-2.672,4.176-4.124l-0.229,3.026l1.759,2.472
				C253.32,325.616,250.994,325.143,249.183,324.991z"/>
		</g>
	</g>
	<g id="arrow-3_00000029744868147923913320000012947919027548469633_">
		<path fill="#F38391" d="M291.326,324.911c-2.381-2.468-5.115-4.574-8.019-6.364c-2.906-1.793-6.034-3.206-9.271-4.214
			c-1.6-0.57-3.279-0.857-4.925-1.224c-1.68-0.198-3.344-0.505-5.036-0.482c-3.373-0.207-6.727,0.318-10.014,0.951l-0.064,0.012
			c-0.473,0.091-0.93-0.219-1.021-0.692c-0.091-0.473,0.219-0.93,0.692-1.021c0.011-0.002,0.025-0.004,0.035-0.006
			c3.46-0.521,6.962-0.909,10.446-0.55c1.748,0.053,3.457,0.44,5.171,0.719c1.68,0.448,3.383,0.817,4.995,1.468
			c3.261,1.171,6.372,2.741,9.227,4.674C286.395,320.11,289.05,322.343,291.326,324.911z"/>
		<g>
			<path fill="#F38391" d="M248.074,314.373c2.459-1.769,5.38-4.436,6.982-6.851l-0.398,5.042l2.919,4.129
				C254.965,315.435,251.091,314.635,248.074,314.373z"/>
		</g>
	</g>
	<g id="arrow-4_00000140707794923646422070000017958986416772095130_">
		<path fill="#F38391" d="M251.83,275.635c-3.454,1.571-7.161,2.581-10.925,3.15c-3.767,0.578-7.623,0.676-11.428,0.223
			c-3.798-0.441-7.589-1.3-11.138-2.796c-1.827-0.634-3.503-1.589-5.223-2.465c-0.881-0.405-1.649-0.994-2.468-1.503l-2.426-1.582
			c-0.408-0.266-0.524-0.813-0.258-1.222c0.266-0.408,0.813-0.524,1.222-0.258c0.008,0.005,0.017,0.011,0.025,0.017l0.074,0.052
			l2.28,1.613c0.771,0.522,1.494,1.126,2.327,1.546c1.626,0.907,3.216,1.901,4.96,2.58c3.385,1.586,7.038,2.565,10.739,3.142
			c3.707,0.589,7.507,0.643,11.257,0.215C244.595,277.929,248.319,277.07,251.83,275.635z"/>
		<g>
			<path fill="#F38391" d="M204.151,266.051c2.855,1.012,6.711,1.892,9.608,1.831l-4.37,2.546l-1.729,4.752
				C207.206,272.319,205.655,268.68,204.151,266.051z"/>
		</g>
	</g>
	<g id="arrow-5_00000147220954306854106970000010242803936895712915_">
		<path fill="#F38391" d="M241.945,209.401c-1.365-1.061-2.961-1.752-4.581-2.244c-1.628-0.485-3.313-0.717-4.99-0.778
			c-1.681-0.044-3.356,0.115-5.002,0.407c-0.823,0.134-1.633,0.372-2.444,0.55l-2.39,0.751l-0.083,0.026
			c-0.628,0.197-1.297-0.152-1.494-0.78c-0.197-0.628,0.152-1.297,0.78-1.494c0.044-0.014,0.089-0.025,0.132-0.033l2.627-0.504
			c0.891-0.093,1.767-0.242,2.658-0.284c1.778-0.109,3.564-0.071,5.32,0.179c1.752,0.266,3.474,0.712,5.089,1.403
			C239.172,207.295,240.709,208.188,241.945,209.401z"/>
		<g>
			<path fill="#F38391" d="M217.105,208.821c2.086-1.755,4.525-4.348,5.797-6.625l-0.013,4.552l2.901,3.506
				C223.362,209.304,219.831,208.85,217.105,208.821z"/>
		</g>
	</g>
	<g id="arrow-6_00000075865796699290761790000002048899225942657177_">
		<path fill="#F38391" d="M209.708,186.931c-0.911-0.133-1.83,0.022-2.723,0.192c-0.897,0.172-1.776,0.429-2.649,0.695
			c-1.741,0.557-3.433,1.257-5.107,1.986c-1.665,0.757-3.309,1.555-4.927,2.406c-1.622,0.843-3.215,1.744-4.805,2.643l-0.013,0.008
			c-0.413,0.234-0.938,0.088-1.172-0.325c-0.234-0.413-0.088-0.938,0.325-1.172c0.019-0.011,0.04-0.021,0.059-0.031
			c1.677-0.783,3.351-1.565,5.054-2.288c1.699-0.731,3.422-1.407,5.16-2.039c1.749-0.605,3.51-1.177,5.312-1.602
			c0.904-0.2,1.81-0.39,2.73-0.493C207.865,186.809,208.807,186.726,209.708,186.931z"/>
		<g>
			<path fill="#F38391" d="M185.91,195.816c1.214-1.352,2.583-3.291,3.212-4.912l0.414,3.006l2.241,2.045
				C190.086,195.554,187.712,195.582,185.91,195.816z"/>
		</g>
	</g>
	<g id="arrow7_00000124865162055675284990000015151170641848636044_">
		<path fill="#F38391" d="M201.764,166.891c-1.306-0.641-2.769-0.828-4.194-0.959c-0.72-0.035-1.438-0.077-2.158-0.038
			c-0.72,0-1.437,0.06-2.153,0.136c-2.862,0.298-5.682,0.917-8.437,1.74c-1.377,0.411-2.737,0.889-4.093,1.359
			c-1.337,0.536-2.69,1.019-4.008,1.597c-1.312,0.593-2.64,1.144-3.935,1.77l-3.87,1.911l-0.031,0.015
			c-0.449,0.222-0.992,0.037-1.214-0.411c-0.222-0.449-0.037-0.992,0.411-1.214c0.013-0.007,0.029-0.014,0.043-0.02l4.019-1.73
			c1.344-0.565,2.722-1.055,4.079-1.584c1.364-0.514,2.766-0.935,4.144-1.405c1.402-0.406,2.802-0.818,4.22-1.161
			c2.835-0.689,5.728-1.168,8.64-1.318c0.728-0.038,1.457-0.061,2.186-0.024c0.729-0.001,1.455,0.079,2.179,0.152
			C199.026,165.913,200.491,166.182,201.764,166.891z"/>
		<g>
			<path fill="#F38391" d="M165.283,175.215c1.249-1.32,2.668-3.223,3.339-4.827l0.336,3.016l2.187,2.103
				C169.464,175.061,167.09,175.028,165.283,175.215z"/>
		</g>
	</g>
	
		<path id="route_00000003063748663283340550000017562741166026524315_" vector-effect="none" fill="none" stroke="#EF4960" stroke-width="2" stroke-linecap="round" stroke-linejoin="round" stroke-miterlimit="10" d="
		M238.981,392.061l-0.398-1.051l-0.417-0.689l-0.045-0.271l0.136-0.091c0,0,0.163-0.199,0.163-0.201
		c-0.086-0.442-1.958-1.807-2.445-2.885c-1.808-4.007-0.048-9.992,0.882-14c1.566-6.751,3.132-13.501,4.698-20.252
		c0.216-0.932,0.434-1.886,0.331-2.838c-0.12-1.1-0.664-2.141-0.642-3.248c0.021-1.056,0.554-2.022,0.98-2.988
		c2.784-6.302,1.99-14.524-0.835-20.672c-1.447-3.149-3.603-6.507-6.718-8.245c-3.725-2.078-7.687-1.142-11.095-4.095
		c-2.57-2.226-4.281-5.258-5.941-8.226c-4.038-7.219-8.076-14.438-12.114-21.658c-2.262-4.044-9.74-12.873-6.57-17.8
		c0.658-1.023,1.629-1.797,2.473-2.674c3.708-3.852,3.151-8.497,4.615-13.183c1.77-5.67,5.793-10.405,8.522-15.609
		c3.023-5.764,5.454-18.614-2.648-21.962c-1.489-0.615-3.222-0.644-4.558-1.545c-1.209-0.816-2.066-2.319-3.515-2.487
		c-0.921-0.107-1.791,0.38-2.633,0.768c-4.186,1.929-9.346,1.568-13.222-0.927c-6.327-4.072-8.358-12.505-13.948-17.541
		c-4.04-3.64-9.514-5.143-14.295-7.734c-4.361-2.364-8.16-5.65-12.453-8.135c-2.74-1.586-5.788-2.867-8.958-3.215
		c-3.274-0.36-6.056,0.75-8.848-1.632c-0.608-0.518-1.083-1.172-1.543-1.825c-7.815-11.109-12.711-24.254-14.065-37.77
		c-0.381-3.805-0.485-7.674,0.243-11.429c0.54-2.789,1.529-5.466,2.39-8.173c2.666-8.389,3.067-16.677,4.417-25.26"/>
</g>
<style>
#g-darien_route-Artboard_1-interactions-img rect, #g-darien_route-Artboard_1-interactions-img circle, #g-darien_route-Artboard_1-interactions-img path, #g-darien_route-Artboard_1-interactions-img line, #g-darien_route-Artboard_1-interactions-img polyline { vector-effect: non-scaling-stroke; }
</style>
</svg>

