<?xml version="1.0" encoding="utf-8"?>
<!-- Generator: Adobe Illustrator 27.3.1, SVG Export Plug-In . SVG Version: 6.00 Build 0)  -->
<svg version="1.2" baseProfile="tiny" id="g-darien_route-Artboard_1-interactions-img" xmlns="http://www.w3.org/2000/svg" xmlns:xlink="http://www.w3.org/1999/xlink"
	 x="0px" y="0px" viewBox="0 0 780.39 889.673" overflow="visible" xml:space="preserve">
<g>
	
		<path id="route-1_00000173159272847204410690000006401991893799054477_" fill="none" stroke="#EF4960" stroke-width="4" stroke-linecap="round" stroke-linejoin="round" stroke-miterlimit="10" d="
		M467.979,763.969c-2.186-8.325-6.728-15.043-6.572-24.04c0.188-10.869,4.504-21.735,6.7-32.324
		c2.58-12.437,5.234-24.821,7.027-37.405c0.813-5.703,2.234-11.773,2.163-17.511c-0.175-14.18-7.708-34.391-21.834-40.452
		c-3.268-1.402-6.878-1.829-10.194-3.116c-10.66-4.136-19.929-17.998-24.35-28.149c-5.834-13.394-10.661-26.971-18.141-39.61
		c-4.73-7.992-12.211-15.023-9.121-25.088c1.275-4.153,3.614-7.89,5.286-11.9c3.923-9.407,4.231-19.909,8.851-29.074
		c4.72-9.364,11.177-17.758,15.028-27.587c8.643-22.06-2.622-41.336-27.365-42.294c-13.892-0.538-23.814,3.171-33.658-9.088
		c-4.37-5.442-7.601-11.722-11.932-17.195c-9.071-11.465-22.165-18.457-34.91-25.056c-9.059-4.691-17.105-11.181-26.293-15.631
		c-8.249-3.995-17.423-3.346-25.448-7.097c-12.702-5.938-25.526-32.683-29.179-45.355c-4.176-14.484-8.163-29.233-8.296-44.306
		c-0.035-3.986,0.203-7.988,0.988-11.896c0.701-3.489,1.832-6.874,2.89-10.271c5.328-17.113,8.858-34.785,10.512-52.631
		l9.217-63.682l0.855-16.241"/>
	<g id="routes_00000042725893880251925520000002419659068793837475_">
		
			<path id="route-2_00000109712318412012732470000017112030266959790985_" fill="none" stroke="#EF4960" stroke-width="3" stroke-linecap="round" stroke-linejoin="round" stroke-miterlimit="10" d="
			M588.65,728.929c-30.779,12.306-59.94,16.202-80.196,13.719c-20.256-2.484-32.66-10.698-42.159-20.195"/>
		
			<path id="route-3_00000130625938771857834730000006501571509256799412_" fill="none" stroke="#EF4960" stroke-width="3" stroke-linecap="round" stroke-linejoin="round" stroke-miterlimit="10" d="
			M610.976,700.938c-39.383-47.971-95.215-76.662-135.785-66.37"/>
		
			<path id="route-4_00000026121129071269360880000001354273254458953103_" fill="none" stroke="#EF4960" stroke-width="3" stroke-linecap="round" stroke-linejoin="round" stroke-miterlimit="10" d="
			M474.899,412.454c-8.087,6.521-31.884,7.542-50.911,5.693"/>
		
			<path id="route-5_00000003814818632321472100000005708525865579307175_" fill="none" stroke="#EF4960" stroke-width="3" stroke-linecap="round" stroke-linejoin="round" stroke-miterlimit="10" d="
			M584.739,437.189c0,0-15.294,2.5-21.923,13.712"/>
		
			<path id="route-6_00000134943689225045707580000010170414700636124826_" fill="none" stroke="#EF4960" stroke-width="3" stroke-linecap="round" stroke-linejoin="round" stroke-miterlimit="10" d="
			M563.86,456.731c0,0,1.47,24.415,19.744,49.668"/>
		
			<path id="route-7_00000152260142643648823580000005047198206047819680_" fill="none" stroke="#EF4960" stroke-width="3" stroke-linecap="round" stroke-linejoin="round" stroke-miterlimit="10" d="
			M593.691,437.748c13.148,0,16.636,10.737,16.636,10.737"/>
		
			<path id="route-8_00000106869728007002634890000012921509781077255090_" fill="none" stroke="#EF4960" stroke-width="3" stroke-linecap="round" stroke-linejoin="round" stroke-miterlimit="10" d="
			M611.144,454.054c0,0,6.373,10.909-17.251,50.744"/>
		
			<path id="route-9_00000025434889880469570230000005380712202240238238_" fill="none" stroke="#EF4960" stroke-width="3" stroke-linecap="round" stroke-linejoin="round" stroke-miterlimit="10" d="
			M590.806,516.534c0,0,59.644,50.518,37.627,150.176"/>
		
			<path id="route-10_00000116943522482492018450000002099440231987027642_" fill="none" stroke="#EF4960" stroke-width="3" stroke-linecap="round" stroke-linejoin="round" stroke-miterlimit="10" d="
			M496.49,373.789c3.046,5.078,4.448,11.304,3.905,17.343"/>
		
			<path id="route-11_00000165956428686315980060000013827499854205745568_" fill="none" stroke="#EF4960" stroke-width="3" stroke-linecap="round" stroke-linejoin="round" stroke-miterlimit="10" d="
			M463.601,207.977c5.867,8.971,8.567,19.97,7.521,30.638"/>
		
			<path id="route-12_00000082339359433791537420000003044763163566776986_" fill="none" stroke="#EF4960" stroke-width="3" stroke-linecap="round" stroke-linejoin="round" stroke-miterlimit="10" d="
			M496.776,218.285c6.56,8.496,10.482,18.999,11.097,29.715"/>
		
			<path id="route-13_00000037668868076584187960000003184519081233411472_" fill="none" stroke="#EF4960" stroke-width="3" stroke-linecap="round" stroke-linejoin="round" stroke-miterlimit="10" d="
			M732.011,267.848c-7.625-5.166-18.515-5.562-26.314-0.532"/>
	</g>
</g>
<style>
#g-darien_route-Artboard_1-interactions-img rect, #g-darien_route-Artboard_1-interactions-img circle, #g-darien_route-Artboard_1-interactions-img path, #g-darien_route-Artboard_1-interactions-img line, #g-darien_route-Artboard_1-interactions-img polyline { vector-effect: non-scaling-stroke; }
</style>
</svg>

