<?xml version="1.0" encoding="utf-8"?>
<!-- Generator: Adobe Illustrator 27.3.1, SVG Export Plug-In . SVG Version: 6.00 Build 0)  -->
<svg version="1.2" baseProfile="tiny" id="g-darien_route-Artboard_1-interactions-img" xmlns="http://www.w3.org/2000/svg" xmlns:xlink="http://www.w3.org/1999/xlink"
	 x="0px" y="0px" viewBox="0 0 780.39 889.673" overflow="visible" xml:space="preserve">
<g>
	
		<path id="route-1_00000127017189306973759020000015332031698317852814_" fill="none" stroke="#EF4960" stroke-width="4" stroke-linecap="round" stroke-linejoin="round" stroke-miterlimit="10" d="
		M467.979,763.969c-2.186-8.325-6.728-15.043-6.572-24.04c0.188-10.869,4.504-21.735,6.7-32.324
		c2.58-12.437,5.234-24.821,7.027-37.405c0.813-5.703,2.234-11.773,2.163-17.511c-0.175-14.18-7.708-34.391-21.834-40.452
		c-3.268-1.402-6.878-1.829-10.194-3.116c-10.66-4.136-19.929-17.998-24.35-28.149c-5.834-13.394-10.661-26.971-18.141-39.61
		c-4.73-7.992-12.211-15.023-9.121-25.088c1.275-4.153,3.614-7.89,5.286-11.9c3.923-9.407,4.231-19.909,8.851-29.074
		c4.72-9.364,11.177-17.758,15.027-27.587c4.143-10.573,6.371-28.954-6.095-34.949c-3.477-1.672-7.331-2.516-10.684-4.424
		c-1.721-0.979-3.305-2.235-5.168-2.906c-3.254-1.172-6.84-0.405-10.245,0.201c-6.35,1.13-13.15,1.603-19.016-1.077
		c-3.918-1.79-7.118-4.866-9.815-8.225c-4.37-5.442-7.601-11.722-11.932-17.195c-9.071-11.465-22.165-18.457-34.909-25.055
		c-12.177-6.304-25.25-17.535-38.758-20.188c-5.248-1.031-11.05-0.313-15.602-3.67c-2.051-1.512-3.51-3.673-4.928-5.79
		c-8.192-12.23-17.495-24.081-21.634-38.436c-4.176-14.484-8.163-29.233-8.296-44.306c-0.035-3.986,0.203-7.988,0.988-11.896
		c0.701-3.489,1.832-6.874,2.89-10.271c5.328-17.113,8.858-34.785,10.512-52.631l9.217-63.682l0.855-16.241"/>
	
		<path id="route-2_00000054266980845494401150000016041300533219133833_" fill="none" stroke="#EF4960" stroke-width="3" stroke-linecap="round" stroke-linejoin="round" stroke-miterlimit="10" d="
		M513.937,735.262c-9.853,1.184-19.791-3.191-27.099-9.905c-7.307-6.714-12.302-15.565-16.377-24.614"/>
	
		<path id="route-3_00000039818812868966779370000006576990402638997394_" fill="none" stroke="#EF4960" stroke-width="3" stroke-linecap="round" stroke-linejoin="round" stroke-miterlimit="10" d="
		M530.958,648.203c-13.908-14.495-36.728-20.615-55.768-13.635"/>
	
		<path id="route-4_00000164510653899272818610000010255566094591534745_" fill="none" stroke="#EF4960" stroke-width="3" stroke-linecap="round" stroke-linejoin="round" stroke-miterlimit="10" d="
		M488.129,531.187c-30.188,12.429-68.94,4.726-91.933-18.567"/>
	
		<path id="route-5_00000069370079962690439000000006330914737336876181_" fill="none" stroke="#EF4960" stroke-width="3" stroke-linecap="round" stroke-linejoin="round" stroke-miterlimit="10" d="
		M463.604,410.316c-6.503,7.098-24.959,9.05-39.616,7.832"/>
	
		<path id="route-6_00000177460194798602405560000010741236573587462303_" fill="none" stroke="#EF4960" stroke-width="3" stroke-linecap="round" stroke-linejoin="round" stroke-miterlimit="10" d="
		M385.771,326.115c-24.606,18.49-55.354,19.724-84.795,18.962"/>
	
		<path id="route-7_00000170980350348427257080000016528556536035024041_" fill="none" stroke="#EF4960" stroke-width="3" stroke-linecap="round" stroke-linejoin="round" stroke-miterlimit="10" d="
		M302.241,271.413c-25.869,13.544-49.218,7.661-70.776,0"/>
</g>
<style>
#g-darien_route-Artboard_1-interactions-img rect, #g-darien_route-Artboard_1-interactions-img circle, #g-darien_route-Artboard_1-interactions-img path, #g-darien_route-Artboard_1-interactions-img line, #g-darien_route-Artboard_1-interactions-img polyline { vector-effect: non-scaling-stroke; }
</style>
</svg>

